<?xml version="1.0" encoding="UTF-8"?> <svg xmlns="http://www.w3.org/2000/svg" viewBox="0 0 1553.52 271.55"><defs><style>.cls-1{fill:#69e1f5;}</style></defs><g id="Layer_2" data-name="Layer 2"><g id="marca"><path class="cls-1" d="M746.47,131.94c10.5-1.56,19.83-7.78,28.39-17.89s12.83-22.55,12.83-38.11c0-21-7-38.11-21-50.95S733.63,5.55,710.3,5.55H586.24V266.11H713c26.45,0,47.06-6.22,61.06-19.45,14-12.83,21.39-30.33,21.39-52.11,0-17.11-5.06-31.5-14.39-42.39-9.72-10.89-21.39-17.11-34.61-18.66ZM627.86,41.33H706c12.06,0,21.78,3.5,29.56,10.5s11.67,15.55,11.67,26.44q0,18.09-11.67,29.17c-7.78,7.39-17.5,10.89-30,10.89H627.86Zm0,189V151.77h82c12.45,0,23,3.89,30.72,10.89s12.06,16.34,12.06,28c0,12.06-3.89,21.78-11.67,28.78-7.77,7.39-18.66,10.89-32.27,10.89Z"></path><path class="cls-1" d="M970.54,133.89a52.36,52.36,0,0,0,24.89-21c5.84-9.72,9-21,9-34.22,0-23.33-8.17-42-24.11-56.78C964.32,7.49,943.32.11,917.65.11c-26,0-47.44,7.77-63.77,22.94-16.73,15.56-26.06,35.39-28,59.89l38.5,7.78c.78-17.5,6.23-30.72,16-40.06q14-14,37.33-14,21.58,0,35,11.67c8.56,7.78,13.23,17.89,13.23,30.33,0,11.67-4.28,21-12.45,28q-12.82,10.5-33.83,10.5H893.93v33.45h28c15.17,0,27.22,3.89,35.78,10.89q12.84,11.08,12.83,29.16c0,13.23-5,24.12-14.77,32.28S933.6,235,918,235c-16.72,0-29.94-4.67-39.28-14.39-9.72-9.72-15.55-23.34-17.11-40.45l-39.28,7.78q2.93,37.92,29.17,60.67c17.11,15.55,39.28,22.94,66.5,22.94q40.26,0,65.34-22.16c16.72-14.78,25.28-34.61,25.28-59.12,0-13.61-3.51-25.27-10.12-35C991.54,145.55,982.21,138.55,970.54,133.89Z"></path><path class="cls-1" d="M8.15,271.55A8.15,8.15,0,0,1,0,263.4V8.15a8.15,8.15,0,0,1,16.3,0V263.4A8.15,8.15,0,0,1,8.15,271.55Z"></path><path class="cls-1" d="M40.72,271.55a8.15,8.15,0,0,1-8.15-8.15V8.15a8.15,8.15,0,0,1,16.3,0V263.4A8.15,8.15,0,0,1,40.72,271.55Z"></path><path class="cls-1" d="M73.29,181.91a8.15,8.15,0,0,1-8.15-8.15v-114a8.15,8.15,0,1,1,16.3,0v114A8.15,8.15,0,0,1,73.29,181.91Z"></path><path class="cls-1" d="M203.56,181.91a8.15,8.15,0,0,1-8.15-8.15v-114a8.15,8.15,0,1,1,16.3,0v114A8.15,8.15,0,0,1,203.56,181.91Z"></path><path class="cls-1" d="M106,217.25a8.15,8.15,0,0,1-8.15-8.15V111.41a8.15,8.15,0,0,1,16.3,0V209.1A8.15,8.15,0,0,1,106,217.25Z"></path><path class="cls-1" d="M431.55,271.55a8.15,8.15,0,0,1-8.15-8.15V209.12a8.15,8.15,0,1,1,16.3,0V263.4A8.15,8.15,0,0,1,431.55,271.55Z"></path><path class="cls-1" d="M464.12,266.11A8.15,8.15,0,0,1,456,258V201a8.15,8.15,0,1,1,16.3,0v57A8.15,8.15,0,0,1,464.12,266.11Z"></path><path class="cls-1" d="M399,266.11a8.15,8.15,0,0,1-8.15-8.15V201a8.15,8.15,0,1,1,16.3,0v57A8.15,8.15,0,0,1,399,266.11Z"></path><path class="cls-1" d="M138.43,271.55a8.15,8.15,0,0,1-8.15-8.15V176.55a8.15,8.15,0,0,1,16.3,0V263.4A8.15,8.15,0,0,1,138.43,271.55Z"></path><path class="cls-1" d="M171,217.25a8.15,8.15,0,0,1-8.15-8.15V111.41a8.15,8.15,0,1,1,16.3,0V209.1A8.14,8.14,0,0,1,171,217.25Z"></path><path class="cls-1" d="M236.13,271.55A8.15,8.15,0,0,1,228,263.4V8.15a8.15,8.15,0,1,1,16.3,0V263.4A8.15,8.15,0,0,1,236.13,271.55Z"></path><path class="cls-1" d="M268.7,271.55a8.15,8.15,0,0,1-8.15-8.15V8.15a8.15,8.15,0,0,1,16.3,0V263.4A8.15,8.15,0,0,1,268.7,271.55Z"></path><path class="cls-1" d="M333.84,200.71a8.15,8.15,0,0,1-8.15-8.15V8.63a8.15,8.15,0,0,1,16.3,0V192.56A8.15,8.15,0,0,1,333.84,200.71Z"></path><path class="cls-1" d="M366.41,246.92a8.15,8.15,0,0,1-8.15-8.15V8.15a8.15,8.15,0,1,1,16.3,0V238.77A8.15,8.15,0,0,1,366.41,246.92Z"></path><path class="cls-1" d="M496.68,246.92a8.15,8.15,0,0,1-8.15-8.15V8.15a8.15,8.15,0,1,1,16.3,0V238.77A8.14,8.14,0,0,1,496.68,246.92Z"></path><path class="cls-1" d="M529.25,200.23a8.15,8.15,0,0,1-8.15-8.15V8.15a8.15,8.15,0,0,1,16.3,0V192.08A8.15,8.15,0,0,1,529.25,200.23Z"></path><path class="cls-1" d="M1120.48,5.56h-6.7l-28.36,53.61L1057.06,5.56h-6.7V70.63h7.38V22.84L1083,70.63h5l25.16-47.79V70.63h7.38Z"></path><path class="cls-1" d="M1191.32,5.56h-7.67V42.17c0,6.8-1.84,12.14-5.34,16.22a17.83,17.83,0,0,1-14.08,6.12c-6,0-10.78-2-14.38-6.12s-5.34-9.42-5.34-16.22V5.56h-7.67V42.17c0,8.94,2.43,16.12,7.48,21.56s11.65,8.16,19.91,8.16,14.66-2.72,19.61-8.16,7.48-12.62,7.48-21.56Z"></path><path class="cls-1" d="M1229.27,4.29c-7,0-12.53,1.75-16.8,5.15a16.52,16.52,0,0,0-6.32,13.5c0,8.74,5.15,14.28,15.64,16.61l14.67,3.2c3.69.88,6.41,2,8.06,3.5A8.8,8.8,0,0,1,1247,53a10.72,10.72,0,0,1-4.27,8.84c-2.82,2.23-6.7,3.3-11.56,3.3-5.15,0-9.42-1.16-12.82-3.69a15.12,15.12,0,0,1-6.21-10.58l-8.06,1.65a20,20,0,0,0,8.44,14.27c4.86,3.5,10.88,5.15,18,5.15,7.29,0,13.11-1.75,17.58-5.24a17.12,17.12,0,0,0,6.61-14.09c0-8.93-5.54-14.56-16.42-16.9l-14.18-3.2a14,14,0,0,1-7.38-3.21,8.42,8.42,0,0,1-2.43-6.5,10.21,10.21,0,0,1,4.08-8.45,16.7,16.7,0,0,1,10.69-3.3,18.11,18.11,0,0,1,11.26,3.49,15.28,15.28,0,0,1,5.63,9.42l7.68-1.75a21.32,21.32,0,0,0-8.26-13A26.5,26.5,0,0,0,1229.27,4.29Z"></path><path class="cls-1" d="M1316,63.64h-39.82V41.4h36.91V34.5h-36.91v-22h39.73V5.56h-47.4V70.63H1316Z"></path><path class="cls-1" d="M1384.05,5.56h-7.67V42.17c0,6.8-1.85,12.14-5.34,16.22A17.85,17.85,0,0,1,1357,64.51c-6,0-10.78-2-14.37-6.12s-5.34-9.42-5.34-16.22V5.56h-7.68V42.17c0,8.94,2.43,16.12,7.48,21.56s11.66,8.16,19.91,8.16,14.67-2.72,19.62-8.16,7.48-12.62,7.48-21.56Z"></path><path class="cls-1" d="M1050.36,103.26v65.08h21.56c11.08,0,19.92-3,26.33-9.13s9.71-13.89,9.71-23.41-3.3-17.29-9.71-23.41-15.25-9.13-26.33-9.13Zm7.67,58.08V110.15h13.79c8.84,0,15.74,2.43,20.79,7.19a24.48,24.48,0,0,1,7.58,18.46q0,11.22-7.58,18.36c-5,4.85-11.95,7.18-20.79,7.18Z"></path><path class="cls-1" d="M1178,168.34l-29.14-65.08h-7.09l-29.14,65.08h8.25l7.29-16.51h34.29l7.28,16.51Zm-18.55-23.41h-28.27l14.18-32.15Z"></path><path class="cls-1" d="M1250.27,134.92a11.47,11.47,0,0,0,7.67-4.56,15.67,15.67,0,0,0,3.3-10,16.11,16.11,0,0,0-5.14-12.43c-3.5-3.11-8.16-4.66-14.19-4.66H1212v65.08h31.18c6.41,0,11.36-1.56,14.86-4.86a16.6,16.6,0,0,0,5.34-12.82,14.92,14.92,0,0,0-13.11-15.45Zm-30.6-25.06h21.56a13.87,13.87,0,0,1,9.23,3,9.73,9.73,0,0,1,3.5,7.87,11.19,11.19,0,0,1-3.4,8.45,12.11,12.11,0,0,1-8.74,3.21h-22.15Zm0,51.87V138.61h22.93a14,14,0,0,1,9.32,3.11,10.49,10.49,0,0,1,3.69,8.26,11.07,11.07,0,0,1-3.59,8.55c-2.33,2.14-5.54,3.2-9.52,3.2Z"></path><path class="cls-1" d="M1307.38,102a33.36,33.36,0,0,0-33.71,33.81,32.52,32.52,0,0,0,9.72,24c6.51,6.61,14.47,9.81,24,9.81a32.09,32.09,0,0,0,23.8-9.81,34.24,34.24,0,0,0,0-48A32.48,32.48,0,0,0,1307.38,102Zm0,60.32a24.78,24.78,0,0,1-18.46-7.57c-5.05-5.05-7.47-11.37-7.47-18.94a25.88,25.88,0,0,1,7.47-18.85,25.69,25.69,0,0,1,36.82,0,26.29,26.29,0,0,1,7.48,18.85,26,26,0,0,1-7.48,18.94A25,25,0,0,1,1307.38,162.31Z"></path><path class="cls-1" d="M1399.83,161.34h-37.3V103.26h-7.68v65.08h45Z"></path><path class="cls-1" d="M1433,102c-7,0-12.53,1.75-16.81,5.15a16.54,16.54,0,0,0-6.31,13.5c0,8.75,5.15,14.28,15.64,16.61l14.66,3.21c3.7.87,6.42,2,8.07,3.5a8.78,8.78,0,0,1,2.52,6.7,10.73,10.73,0,0,1-4.27,8.84c-2.82,2.23-6.7,3.3-11.56,3.3-5.15,0-9.42-1.16-12.82-3.69a15.16,15.16,0,0,1-6.22-10.59l-8.06,1.65a20,20,0,0,0,8.45,14.28c4.86,3.5,10.88,5.15,18,5.15,7.29,0,13.11-1.75,17.58-5.24a17.12,17.12,0,0,0,6.61-14.09c0-8.94-5.54-14.57-16.42-16.9l-14.18-3.21a14.09,14.09,0,0,1-7.38-3.2,8.41,8.41,0,0,1-2.43-6.51,10.22,10.22,0,0,1,4.08-8.45,16.67,16.67,0,0,1,10.68-3.3,18.12,18.12,0,0,1,11.27,3.49,15.3,15.3,0,0,1,5.63,9.43l7.68-1.75a21.31,21.31,0,0,0-8.26-13A26.5,26.5,0,0,0,1433,102Z"></path><path class="cls-1" d="M1530,168.34l-29.14-65.08h-7.09l-29.14,65.08h8.25l7.29-16.51h34.29l7.28,16.51Zm-18.55-23.41h-28.27l14.18-32.15Z"></path><path class="cls-1" d="M1050.36,201v65.14h21.58c11.09,0,19.94-3,26.35-9.14s9.73-13.9,9.73-23.43-3.31-17.31-9.73-23.43S1083,201,1071.94,201Zm7.68,58.14V207.89h13.81c8.84,0,15.75,2.43,20.8,7.19s7.59,11,7.59,18.48-2.53,13.61-7.59,18.37-12,7.2-20.8,7.2Z"></path><path class="cls-1" d="M1152.48,199.72a34,34,0,0,0-24,57.85c6.51,6.62,14.48,9.82,24,9.82a32.09,32.09,0,0,0,23.82-9.82,32.6,32.6,0,0,0,9.83-24,32.94,32.94,0,0,0-9.83-24A32.51,32.51,0,0,0,1152.48,199.72Zm0,60.38a24.8,24.8,0,0,1-18.47-7.58c-5.06-5.06-7.49-11.38-7.49-19a25.9,25.9,0,0,1,7.49-18.87,24.59,24.59,0,0,1,18.47-7.77,24.85,24.85,0,0,1,18.38,7.77,26.31,26.31,0,0,1,7.49,18.87,26,26,0,0,1-7.49,19A25.05,25.05,0,0,1,1152.48,260.1Z"></path><path class="cls-1" d="M1262.81,232.68a11.48,11.48,0,0,0,7.68-4.57,15.7,15.7,0,0,0,3.31-10,16.11,16.11,0,0,0-5.16-12.45c-3.5-3.11-8.16-4.66-14.19-4.66h-30v65.14h31.21c6.42,0,11.38-1.55,14.88-4.86a16.65,16.65,0,0,0,5.35-12.84A14.93,14.93,0,0,0,1262.81,233Zm-30.63-25.08h21.59a13.92,13.92,0,0,1,9.24,3,9.74,9.74,0,0,1,3.5,7.88,11.2,11.2,0,0,1-3.41,8.46,12.12,12.12,0,0,1-8.75,3.21h-22.17Zm0,51.92V236.38h23a14,14,0,0,1,9.33,3.11,10.5,10.5,0,0,1,3.7,8.26,11.09,11.09,0,0,1-3.6,8.56c-2.33,2.14-5.54,3.21-9.53,3.21Z"></path><path class="cls-1" d="M1343.61,266.13l-25.19-27.91h1.17c6.32,0,11.47-1.65,15.36-5.15a18.25,18.25,0,0,0,0-26.93c-3.89-3.4-9-5.15-15.36-5.15h-30.14v65.14h7.68V238.22h12L1334,266.13Zm-46.48-34.91V207.89h22.46a14.57,14.57,0,0,1,9.82,3.21,11.34,11.34,0,0,1,0,16.92,14.56,14.56,0,0,1-9.82,3.2Z"></path><path class="cls-1" d="M1413.86,266.13,1384.69,201h-7.09l-29.17,65.14h8.26L1364,249.6h34.33l7.29,16.53Zm-18.57-23.43H1367l14.19-32.19Z"></path><path class="cls-1" d="M1444.54,199.72c-7,0-12.54,1.75-16.82,5.15a16.55,16.55,0,0,0-6.32,13.52c0,8.75,5.15,14.29,15.65,16.63l14.69,3.2c3.69.88,6.41,2.05,8.07,3.51a8.78,8.78,0,0,1,2.52,6.7,10.72,10.72,0,0,1-4.27,8.85c-2.82,2.24-6.71,3.31-11.58,3.31-5.15,0-9.43-1.17-12.83-3.7a15.14,15.14,0,0,1-6.22-10.59l-8.07,1.65a20,20,0,0,0,8.46,14.29c4.86,3.5,10.89,5.15,18,5.15,7.3,0,13.13-1.75,17.6-5.25a17.1,17.1,0,0,0,6.62-14.09c0-9-5.55-14.59-16.44-16.92l-14.19-3.21c-3.31-.59-5.74-1.65-7.39-3.21a8.42,8.42,0,0,1-2.43-6.52,10.22,10.22,0,0,1,4.08-8.45,16.71,16.71,0,0,1,10.7-3.31,18.13,18.13,0,0,1,11.27,3.5,15.24,15.24,0,0,1,5.64,9.43l7.69-1.75a21.33,21.33,0,0,0-8.27-13C1456.31,201.38,1451,199.72,1444.54,199.72Z"></path><path class="cls-1" d="M1491.5,266.13V201h-7.68v65.14Z"></path><path class="cls-1" d="M1553.52,259.13h-37.33V201h-7.69v65.14h45Z"></path></g></g></svg> 